<svg id="Layer_1" data-name="Layer 1" xmlns="http://www.w3.org/2000/svg" viewBox="0 0 521 521"><defs><style>.cls-1{fill:#fff;}.cls-2{fill:#8a22ff;}</style></defs><circle class="cls-1" cx="260.5" cy="260.5" r="260.5"/><path d="M377.41,701a38.86,38.86,0,0,1-29.65-64l77-91h1.53l34.81,41.07v1.29l-48.33,57.29H586.33L347.75,363a38.86,38.86,0,0,1,29.61-64H621.7a38.86,38.86,0,0,1,29.66,64l-77,91h-1.53L538,412.91v-1.29l48.33-57.29H412.78L651.36,637a38.86,38.86,0,0,1-29.61,64Z" transform="translate(-239 -239)"/><path class="cls-2" d="M621.75,300a37.86,37.86,0,0,1,28.84,62.33l-77,91-34.82-41.06,49.73-58.94H410.62l240,284.34A37.86,37.86,0,0,1,621.75,700H377.36a37.86,37.86,0,0,1-28.84-62.33l77-91,34.82,41.06-49.73,58.94H588.49l-240-284.34A37.86,37.86,0,0,1,377.36,300H621.75m0-2H377.41A39.87,39.87,0,0,0,347,363.63l237.19,281H414.93L461.88,589v-2.58l-34.81-41.07H424l-77,91A39.87,39.87,0,0,0,377.36,702H621.7a39.86,39.86,0,0,0,30.42-65.63l-237.19-281H584.18L537.23,411v2.58l34.81,41.07h3.05l77-91A39.86,39.86,0,0,0,621.75,298Z" transform="translate(-239 -239)"/></svg>